<?xml version="1.0" encoding="utf-8"?>
<!-- Generator: Adobe Illustrator 17.1.0, SVG Export Plug-In . SVG Version: 6.00 Build 0)  -->
<!DOCTYPE svg PUBLIC "-//W3C//DTD SVG 1.1//EN" "http://www.w3.org/Graphics/SVG/1.1/DTD/svg11.dtd">
<svg version="1.1" id="Layer_1" xmlns="http://www.w3.org/2000/svg" xmlns:xlink="http://www.w3.org/1999/xlink" x="0px" y="0px"
	 width="45.4px" height="39.7px" viewBox="0 0 45.4 39.7" enable-background="new 0 0 45.4 39.7" xml:space="preserve">
<g>
	<g>
		<defs>
			<path id="SVGID_1_" d="M18.6,2.3c0,0-17,16.4-17.1,16.5c-1.8,1.7-2.4,5.1,0,7.5C1.7,26.5,13,37.8,13.9,38.5
				c1.1,1,2.2,1.2,3.5,1.2l10.1-0.9c1.3,0,2.4-0.2,3.5-1.2c0.8-0.7,12.2-11.2,12.5-11.4c2.3-2.4,1.8-5.8,0-7.5c-0.1-0.1-17-17-17-17
				c-1.3-1-2.6-1.4-3.9-1.4C21.2,0.4,19.8,1,18.6,2.3"/>
		</defs>
		<clipPath id="SVGID_2_">
			<use xlink:href="#SVGID_1_"  overflow="visible"/>
		</clipPath>
		
			<linearGradient id="SVGID_3_" gradientUnits="userSpaceOnUse" x1="838.387" y1="1083.7515" x2="839.1579" y2="1083.7515" gradientTransform="matrix(32.0366 -32.0366 -32.0366 -32.0366 7869.5337 61612.3984)">
			<stop  offset="0" style="stop-color:#1A294D"/>
			<stop  offset="0.3139" style="stop-color:#2C4470"/>
			<stop  offset="0.5399" style="stop-color:#375484"/>
			<stop  offset="1" style="stop-color:#000125"/>
		</linearGradient>
		<polygon clip-path="url(#SVGID_2_)" fill="url(#SVGID_3_)" points="-20.5,20 22.5,-22.9 65.4,20 22.5,63 		"/>
	</g>
	<g>
		<defs>
			<path id="SVGID_4_" d="M18.5,1.8c0,0-17.1,17.1-17,17C7.2,13.8,19.8,1.8,26.7,2c-0.1-0.1-0.1-0.1-0.2-0.2c-1.1-1.1-2.5-1.8-4-1.8
				C21.1,0,19.7,0.6,18.5,1.8"/>
		</defs>
		<clipPath id="SVGID_5_">
			<use xlink:href="#SVGID_4_"  overflow="visible"/>
		</clipPath>
		
			<linearGradient id="SVGID_6_" gradientUnits="userSpaceOnUse" x1="831.8399" y1="1010.5838" x2="832.6108" y2="1010.5838" gradientTransform="matrix(-1.8261 26.114 26.114 1.8261 -24856.6113 -23568.5859)">
			<stop  offset="0" style="stop-color:#FFD200"/>
			<stop  offset="0.4303" style="stop-color:#F9A515"/>
			<stop  offset="0.6648" style="stop-color:#F6911E"/>
			<stop  offset="1" style="stop-color:#F6911E"/>
		</linearGradient>
		<polygon clip-path="url(#SVGID_5_)" fill="url(#SVGID_6_)" points="28,0.1 26.5,20.6 0.1,18.8 1.6,-1.8 		"/>
	</g>
	<g>
		<defs>
			<path id="SVGID_7_" d="M43.5,26.1c-1.3,1.2-12.2,11.1-26,13.6h10.2c1.3,0,2.3-0.1,3.5-1.2C32.3,37.5,43.5,26.2,43.5,26.1
				C43.5,26.2,43.5,26.1,43.5,26.1C43.5,26.1,43.5,26.1,43.5,26.1"/>
		</defs>
		<clipPath id="SVGID_8_">
			<use xlink:href="#SVGID_7_"  overflow="visible"/>
		</clipPath>
		
			<linearGradient id="SVGID_9_" gradientUnits="userSpaceOnUse" x1="835.8762" y1="1090.3988" x2="836.6471" y2="1090.3988" gradientTransform="matrix(25.705 -25.705 -25.705 -25.705 6563.0981 49557.668)">
			<stop  offset="0" style="stop-color:#FFD200"/>
			<stop  offset="8.522030e-02" style="stop-color:#FFD200"/>
			<stop  offset="0.2696" style="stop-color:#FCBE09"/>
			<stop  offset="0.6124" style="stop-color:#F89D18"/>
			<stop  offset="0.8011" style="stop-color:#F6911E"/>
			<stop  offset="1" style="stop-color:#F6911E"/>
		</linearGradient>
		<polygon clip-path="url(#SVGID_8_)" fill="url(#SVGID_9_)" points="10.7,32.9 30.5,13.1 50.3,32.9 30.5,52.8 		"/>
	</g>
	<path fill="#FFD200" d="M23.7,22.9h-2l1.7-2.9L23.7,22.9z M27,26.6l-1.7-9.5h-2.1c-0.3,0-0.9,0.1-1.3,0.9c-0.4,0.7-4.5,7.1-4.5,7.1
		l0,1.6h2.3l0.9-1.5H24l0.2,1.5H27z"/>
	<path fill="#FFD200" d="M14.9,20.5c-0.2,0.7-0.7,1-1.7,1h-1.3l0.5-2h1.2C14.6,19.5,15,19.8,14.9,20.5 M9.7,17.7l-0.2,0.9l-1.8,7.9
		h3.1l0.8-3.6c0.8,0,2.1,0.2,2.1,2.5c0,0.2,0,1-0.1,1.1h3.3c0-0.3,0-0.6,0-1c0-0.8,0-1.4-0.2-2c-0.1-0.5-0.4-1-0.7-1.4
		c0.5-0.2,1.7-0.8,2.1-2.3c0.2-0.8,0.2-2.8-3-2.8H9.5L9.7,17.7z"/>
	<path fill="#FFD200" d="M33.3,22.9c-0.1,0.2-0.3,0.3-0.4,0.4c-0.4,0.3-0.9,0.5-1.5,0.5c-0.6,0-1-0.2-1.3-0.6
		c-0.3-0.4-0.4-0.9-0.2-1.5c0.1-0.6,0.5-1.1,0.9-1.5c0.5-0.4,1-0.6,1.6-0.6c0.8,0,1.3,0.4,1.5,1.2H37c0-0.9-0.3-1.9-0.8-2.5
		C35.4,17.5,34.4,17,33,17c-1.4,0-2.7,0.5-3.9,1.4c-1.2,0.9-1.9,2.1-2.2,3.4c-0.3,1.3-0.1,2.5,0.6,3.4c0.7,0.9,1.8,1.4,3.2,1.4
		c1.4,0,2.6-0.4,3.6-1.2c0.8-0.6,1.5-1.5,2-2.4H33.3z"/>
</g>
</svg>
