<?xml version="1.0" encoding="UTF-8" standalone="no"?>
<!-- Created with Inkscape (http://www.inkscape.org/) -->
<svg height="125.38116" id="svg2" version="1.1" width="141.93417" xmlns="http://www.w3.org/2000/svg" xmlns:cc="http://creativecommons.org/ns#" xmlns:dc="http://purl.org/dc/elements/1.1/" xmlns:rdf="http://www.w3.org/1999/02/22-rdf-syntax-ns#" xmlns:svg="http://www.w3.org/2000/svg" xmlns:xlink="http://www.w3.org/1999/xlink">
  <defs id="defs4">
    <linearGradient gradientUnits="userSpaceOnUse" id="linearGradient3064" x1="98.768997" x2="176.7211" xlink:href="#SVGID_7_" y1="261.56451" y2="183.6124"/>
    <linearGradient gradientUnits="userSpaceOnUse" id="linearGradient3066" x1="131.8853" x2="194.43201" xlink:href="#SVGID_8_" y1="286.7793" y2="224.2326"/>
    <linearGradient gradientUnits="userSpaceOnUse" id="linearGradient3068" x1="97.409698" x2="139.9713" xlink:href="#SVGID_9_" y1="190.76759" y2="155.8141"/>
    <linearGradient gradientUnits="userSpaceOnUse" id="linearGradient3064-2" x1="98.768997" x2="176.7211" xlink:href="#SVGID_7_-1" y1="261.56451" y2="183.6124"/>
    <linearGradient gradientUnits="userSpaceOnUse" id="SVGID_7_-1" x1="98.768997" x2="176.7211" y1="261.56451" y2="183.6124">
      <stop id="stop2991-6" offset="0" style="stop-color:#122a4f;stop-opacity:1"/>
      <stop id="stop2993-8" offset="0.0474" style="stop-color:#152f54;stop-opacity:1"/>
      <stop id="stop2995-5" offset="0.37810001" style="stop-color:#2e4e79;stop-opacity:1"/>
      <stop id="stop2997-7" offset="0.5399" style="stop-color:#375a88;stop-opacity:1"/>
      <stop id="stop2999-6" offset="0.89109999" style="stop-color:#031b36;stop-opacity:1"/>
      <stop id="stop3001-1" offset="1" style="stop-color:#00001d;stop-opacity:1"/>
    </linearGradient>
    <linearGradient gradientUnits="userSpaceOnUse" id="linearGradient3066-8" x1="131.8853" x2="194.43201" xlink:href="#SVGID_8_-9" y1="286.7793" y2="224.2326"/>
    <linearGradient gradientUnits="userSpaceOnUse" id="SVGID_8_-9" x1="131.8853" x2="194.43201" y1="286.7793" y2="224.2326">
      <stop id="stop3006-2" offset="0.2638" style="stop-color:#fdb515;stop-opacity:1"/>
      <stop id="stop3008-7" offset="0.40779999" style="stop-color:#faa425;stop-opacity:1"/>
      <stop id="stop3010-9" offset="0.55940002" style="stop-color:#f8972f;stop-opacity:1"/>
      <stop id="stop3012-5" offset="0.66869998" style="stop-color:#f79332;stop-opacity:1"/>
    </linearGradient>
    <linearGradient gradientUnits="userSpaceOnUse" id="linearGradient3068-4" x1="97.409698" x2="139.9713" xlink:href="#SVGID_9_-3" y1="190.76759" y2="155.8141"/>
    <linearGradient gradientUnits="userSpaceOnUse" id="SVGID_9_-3" x1="97.409698" x2="139.9713" y1="190.76759" y2="155.8141">
      <stop id="stop3023-1" offset="0.4172" style="stop-color:#f7921e;stop-opacity:1"/>
      <stop id="stop3025-2" offset="0.8466" style="stop-color:#fdb515;stop-opacity:1"/>
    </linearGradient>
    <linearGradient gradientUnits="userSpaceOnUse" id="linearGradient3064-2-7" x1="98.768997" x2="176.7211" xlink:href="#SVGID_7_-1-4" y1="261.56451" y2="183.6124"/>
    <linearGradient gradientUnits="userSpaceOnUse" id="SVGID_7_-1-4" x1="98.768997" x2="176.7211" y1="261.56451" y2="183.6124">
      <stop id="stop2991-6-2" offset="0" style="stop-color:#122a4f;stop-opacity:1"/>
      <stop id="stop2993-8-7" offset="0.0474" style="stop-color:#152f54;stop-opacity:1"/>
      <stop id="stop2995-5-7" offset="0.37810001" style="stop-color:#2e4e79;stop-opacity:1"/>
      <stop id="stop2997-7-9" offset="0.5399" style="stop-color:#375a88;stop-opacity:1"/>
      <stop id="stop2999-6-3" offset="0.89109999" style="stop-color:#031b36;stop-opacity:1"/>
      <stop id="stop3001-1-1" offset="1" style="stop-color:#00001d;stop-opacity:1"/>
    </linearGradient>
    <linearGradient gradientTransform="translate(-66.922606,-151.27035)" gradientUnits="userSpaceOnUse" id="linearGradient3066-8-9" x1="131.8853" x2="194.43201" xlink:href="#SVGID_8_-9-8" y1="286.7793" y2="224.2326"/>
    <linearGradient gradientUnits="userSpaceOnUse" id="SVGID_8_-9-8" x1="131.8853" x2="194.43201" y1="286.7793" y2="224.2326">
      <stop id="stop3006-2-6" offset="0.2638" style="stop-color:#fdb515;stop-opacity:1"/>
      <stop id="stop3008-7-5" offset="0.40779999" style="stop-color:#faa425;stop-opacity:1"/>
      <stop id="stop3010-9-0" offset="0.55940002" style="stop-color:#f8972f;stop-opacity:1"/>
      <stop id="stop3012-5-2" offset="0.66869998" style="stop-color:#f79332;stop-opacity:1"/>
    </linearGradient>
    <linearGradient gradientTransform="translate(-66.922606,-151.27035)" gradientUnits="userSpaceOnUse" id="linearGradient3068-4-8" x1="97.409698" x2="139.9713" xlink:href="#SVGID_9_-3-6" y1="190.76759" y2="155.8141"/>
    <linearGradient gradientUnits="userSpaceOnUse" id="SVGID_9_-3-6" x1="97.409698" x2="139.9713" y1="190.76759" y2="155.8141">
      <stop id="stop3023-1-0" offset="0.4172" style="stop-color:#f7921e;stop-opacity:1"/>
      <stop id="stop3025-2-2" offset="0.8466" style="stop-color:#fdb515;stop-opacity:1"/>
    </linearGradient>
    <linearGradient gradientTransform="translate(-66.922606,-151.27035)" gradientUnits="userSpaceOnUse" id="linearGradient3361" x1="98.768997" x2="176.7211" xlink:href="#SVGID_7_-1-4" y1="261.56451" y2="183.6124"/>
    <linearGradient gradientTransform="translate(-66.922606,-151.27035)" gradientUnits="userSpaceOnUse" id="linearGradient3361-4" x1="98.768997" x2="176.7211" xlink:href="#SVGID_7_-1-4-8" y1="261.56451" y2="183.6124"/>
    <linearGradient gradientUnits="userSpaceOnUse" id="SVGID_7_-1-4-8" x1="98.768997" x2="176.7211" y1="261.56451" y2="183.6124">
      <stop id="stop2991-6-2-6" offset="0" style="stop-color:#122a4f;stop-opacity:1"/>
      <stop id="stop2993-8-7-5" offset="0.0474" style="stop-color:#152f54;stop-opacity:1"/>
      <stop id="stop2995-5-7-0" offset="0.37810001" style="stop-color:#2e4e79;stop-opacity:1"/>
      <stop id="stop2997-7-9-9" offset="0.5399" style="stop-color:#375a88;stop-opacity:1"/>
      <stop id="stop2999-6-3-0" offset="0.89109999" style="stop-color:#031b36;stop-opacity:1"/>
      <stop id="stop3001-1-1-0" offset="1" style="stop-color:#00001d;stop-opacity:1"/>
    </linearGradient>
    <linearGradient gradientTransform="translate(-66.922606,-151.27034)" gradientUnits="userSpaceOnUse" id="linearGradient3066-8-9-6" x1="131.8853" x2="194.43201" xlink:href="#SVGID_8_-9-8-1" y1="286.7793" y2="224.2326"/>
    <linearGradient gradientUnits="userSpaceOnUse" id="SVGID_8_-9-8-1" x1="131.8853" x2="194.43201" y1="286.7793" y2="224.2326">
      <stop id="stop3006-2-6-3" offset="0.2638" style="stop-color:#fdb515;stop-opacity:1"/>
      <stop id="stop3008-7-5-8" offset="0.40779999" style="stop-color:#faa425;stop-opacity:1"/>
      <stop id="stop3010-9-0-9" offset="0.55940002" style="stop-color:#f8972f;stop-opacity:1"/>
      <stop id="stop3012-5-2-3" offset="0.66869998" style="stop-color:#f79332;stop-opacity:1"/>
    </linearGradient>
    <linearGradient gradientTransform="translate(-66.922606,-151.27034)" gradientUnits="userSpaceOnUse" id="linearGradient3068-4-8-4" x1="97.409698" x2="139.9713" xlink:href="#SVGID_9_-3-6-4" y1="190.76759" y2="155.8141"/>
    <linearGradient gradientUnits="userSpaceOnUse" id="SVGID_9_-3-6-4" x1="97.409698" x2="139.9713" y1="190.76759" y2="155.8141">
      <stop id="stop3023-1-0-6" offset="0.4172" style="stop-color:#f7921e;stop-opacity:1"/>
      <stop id="stop3025-2-2-0" offset="0.8466" style="stop-color:#fdb515;stop-opacity:1"/>
    </linearGradient>
    <linearGradient gradientTransform="translate(-66.922606,-151.27034)" gradientUnits="userSpaceOnUse" id="linearGradient3452" x1="98.768997" x2="176.7211" xlink:href="#SVGID_7_-1-4-8" y1="261.56451" y2="183.6124"/>
    <linearGradient gradientTransform="translate(-66.922606,-151.27034)" gradientUnits="userSpaceOnUse" id="linearGradient3452-6" x1="98.768997" x2="176.7211" xlink:href="#SVGID_7_-1-4-8-6" y1="261.56451" y2="183.6124"/>
    <linearGradient gradientUnits="userSpaceOnUse" id="SVGID_7_-1-4-8-6" x1="98.768997" x2="176.7211" y1="261.56451" y2="183.6124">
      <stop id="stop2991-6-2-6-1" offset="0" style="stop-color:#122a4f;stop-opacity:1"/>
      <stop id="stop2993-8-7-5-8" offset="0.0474" style="stop-color:#152f54;stop-opacity:1"/>
      <stop id="stop2995-5-7-0-4" offset="0.37810001" style="stop-color:#2e4e79;stop-opacity:1"/>
      <stop id="stop2997-7-9-9-9" offset="0.5399" style="stop-color:#375a88;stop-opacity:1"/>
      <stop id="stop2999-6-3-0-6" offset="0.89109999" style="stop-color:#031b36;stop-opacity:1"/>
      <stop id="stop3001-1-1-0-3" offset="1" style="stop-color:#00001d;stop-opacity:1"/>
    </linearGradient>
    <linearGradient gradientTransform="translate(-66.922605,-151.27034)" gradientUnits="userSpaceOnUse" id="linearGradient3066-8-9-6-7" x1="131.8853" x2="194.43201" xlink:href="#SVGID_8_-9-8-1-8" y1="286.7793" y2="224.2326"/>
    <linearGradient gradientUnits="userSpaceOnUse" id="SVGID_8_-9-8-1-8" x1="131.8853" x2="194.43201" y1="286.7793" y2="224.2326">
      <stop id="stop3006-2-6-3-8" offset="0.2638" style="stop-color:#fdb515;stop-opacity:1"/>
      <stop id="stop3008-7-5-8-2" offset="0.40779999" style="stop-color:#faa425;stop-opacity:1"/>
      <stop id="stop3010-9-0-9-9" offset="0.55940002" style="stop-color:#f8972f;stop-opacity:1"/>
      <stop id="stop3012-5-2-3-1" offset="0.66869998" style="stop-color:#f79332;stop-opacity:1"/>
    </linearGradient>
    <linearGradient gradientTransform="translate(-66.922605,-151.27034)" gradientUnits="userSpaceOnUse" id="linearGradient3068-4-8-4-3" x1="97.409698" x2="139.9713" xlink:href="#SVGID_9_-3-6-4-5" y1="190.76759" y2="155.8141"/>
    <linearGradient gradientUnits="userSpaceOnUse" id="SVGID_9_-3-6-4-5" x1="97.409698" x2="139.9713" y1="190.76759" y2="155.8141">
      <stop id="stop3023-1-0-6-9" offset="0.4172" style="stop-color:#f7921e;stop-opacity:1"/>
      <stop id="stop3025-2-2-0-8" offset="0.8466" style="stop-color:#fdb515;stop-opacity:1"/>
    </linearGradient>
    <linearGradient gradientTransform="translate(-66.922605,-151.27034)" gradientUnits="userSpaceOnUse" id="linearGradient3543" x1="98.768997" x2="176.7211" xlink:href="#SVGID_7_-1-4-8-6" y1="261.56451" y2="183.6124"/>
    <linearGradient gradientTransform="translate(-66.85947,-151.45974)" gradientUnits="userSpaceOnUse" id="linearGradient3691" x1="98.768997" x2="176.7211" xlink:href="#SVGID_7_-1-4-8-6" y1="261.56451" y2="183.6124"/>
    <linearGradient gradientTransform="translate(-66.85947,-151.45974)" gradientUnits="userSpaceOnUse" id="linearGradient3693" x1="131.8853" x2="194.43201" xlink:href="#SVGID_8_-9-8-1-8" y1="286.7793" y2="224.2326"/>
    <linearGradient gradientTransform="translate(-66.85947,-151.45974)" gradientUnits="userSpaceOnUse" id="linearGradient3695" x1="97.409698" x2="139.9713" xlink:href="#SVGID_9_-3-6-4-5" y1="190.76759" y2="155.8141"/>
    <linearGradient gradientTransform="translate(-66.85947,-151.45974)" gradientUnits="userSpaceOnUse" id="linearGradient3691-1" x1="98.768997" x2="176.7211" xlink:href="#SVGID_7_-1-4-8-6-6" y1="261.56451" y2="183.6124"/>
    <linearGradient gradientUnits="userSpaceOnUse" id="SVGID_7_-1-4-8-6-6" x1="98.768997" x2="176.7211" y1="261.56451" y2="183.6124">
      <stop id="stop2991-6-2-6-1-5" offset="0" style="stop-color:#122a4f;stop-opacity:1"/>
      <stop id="stop2993-8-7-5-8-7" offset="0.0474" style="stop-color:#152f54;stop-opacity:1"/>
      <stop id="stop2995-5-7-0-4-5" offset="0.37810001" style="stop-color:#2e4e79;stop-opacity:1"/>
      <stop id="stop2997-7-9-9-9-4" offset="0.5399" style="stop-color:#375a88;stop-opacity:1"/>
      <stop id="stop2999-6-3-0-6-1" offset="0.89109999" style="stop-color:#031b36;stop-opacity:1"/>
      <stop id="stop3001-1-1-0-3-2" offset="1" style="stop-color:#00001d;stop-opacity:1"/>
    </linearGradient>
    <linearGradient gradientTransform="translate(-66.85947,-151.45973)" gradientUnits="userSpaceOnUse" id="linearGradient3693-0" x1="131.8853" x2="194.43201" xlink:href="#SVGID_8_-9-8-1-8-0" y1="286.7793" y2="224.2326"/>
    <linearGradient gradientUnits="userSpaceOnUse" id="SVGID_8_-9-8-1-8-0" x1="131.8853" x2="194.43201" y1="286.7793" y2="224.2326">
      <stop id="stop3006-2-6-3-8-1" offset="0.2638" style="stop-color:#fdb515;stop-opacity:1"/>
      <stop id="stop3008-7-5-8-2-4" offset="0.40779999" style="stop-color:#faa425;stop-opacity:1"/>
      <stop id="stop3010-9-0-9-9-6" offset="0.55940002" style="stop-color:#f8972f;stop-opacity:1"/>
      <stop id="stop3012-5-2-3-1-0" offset="0.66869998" style="stop-color:#f79332;stop-opacity:1"/>
    </linearGradient>
    <linearGradient gradientTransform="translate(-66.85947,-151.45973)" gradientUnits="userSpaceOnUse" id="linearGradient3695-7" x1="97.409698" x2="139.9713" xlink:href="#SVGID_9_-3-6-4-5-1" y1="190.76759" y2="155.8141"/>
    <linearGradient gradientUnits="userSpaceOnUse" id="SVGID_9_-3-6-4-5-1" x1="97.409698" x2="139.9713" y1="190.76759" y2="155.8141">
      <stop id="stop3023-1-0-6-9-7" offset="0.4172" style="stop-color:#f7921e;stop-opacity:1"/>
      <stop id="stop3025-2-2-0-8-7" offset="0.8466" style="stop-color:#fdb515;stop-opacity:1"/>
    </linearGradient>
    <linearGradient gradientTransform="translate(-66.85947,-151.45973)" gradientUnits="userSpaceOnUse" id="linearGradient3731" x1="98.768997" x2="176.7211" xlink:href="#SVGID_7_-1-4-8-6-6" y1="261.56451" y2="183.6124"/>
  </defs>
  <g id="cmyk_x2B_yellowback">
    <linearGradient gradientUnits="userSpaceOnUse" id="linearGradient3099" x1="98.768997" x2="176.7211" y1="261.56451" y2="183.6124">
      <stop id="stop3101" offset="0" style="stop-color:#122a4f;stop-opacity:1"/>
      <stop id="stop3103" offset="0.0474" style="stop-color:#152f54;stop-opacity:1"/>
      <stop id="stop3105" offset="0.37810001" style="stop-color:#2e4e79;stop-opacity:1"/>
      <stop id="stop3107" offset="0.5399" style="stop-color:#375a88;stop-opacity:1"/>
      <stop id="stop3109" offset="0.89109999" style="stop-color:#031b36;stop-opacity:1"/>
      <stop id="stop3111" offset="1" style="stop-color:#00001d;stop-opacity:1"/>
    </linearGradient>
    <linearGradient gradientUnits="userSpaceOnUse" id="linearGradient3114" x1="131.8853" x2="194.43201" y1="286.7793" y2="224.2326">
      <stop id="stop3116" offset="0.2638" style="stop-color:#fdb515;stop-opacity:1"/>
      <stop id="stop3118" offset="0.40779999" style="stop-color:#faa425;stop-opacity:1"/>
      <stop id="stop3120" offset="0.55940002" style="stop-color:#f8972f;stop-opacity:1"/>
      <stop id="stop3122" offset="0.66869998" style="stop-color:#f79332;stop-opacity:1"/>
    </linearGradient>
    <linearGradient gradientUnits="userSpaceOnUse" id="linearGradient3128" x1="97.409698" x2="139.9713" y1="190.76759" y2="155.8141">
      <stop id="stop3130" offset="0.4172" style="stop-color:#f7921e;stop-opacity:1"/>
      <stop id="stop3132" offset="0.8466" style="stop-color:#fdb515;stop-opacity:1"/>
    </linearGradient>
    <path d="m 136.96553,59.264261 c -0.378,-0.358 -53.514997,-53.5200019 -53.514997,-53.5200019 -8.700003,-6.47899991 -17.810003,-6.12799991 -24.706003,1.446 0,0 -53.5010018,51.7160019 -53.8770018,52.0740019 -5.59600003,5.303 -7.428,16.076 -0.065,23.617 0.664,0.673 36.2210018,36.499019 38.8740018,38.837019 3.579,3.147 6.839,3.704 11.007,3.704 l 32.034003,-2.924 c 4.151,0 7.421,-0.557 10.988,-3.704 2.653997,-2.344 38.656997,-35.240019 39.319997,-35.913019 7.37,-7.541 5.537,-18.315 -0.06,-23.617 z" id="path3003-3" style="fill:url(#linearGradient3731)"/>
    <path d="m 137.28253,82.627261 c 0.008,-0.012 0.086,-0.103 0.057,-0.076 -4.122,3.663 -38.546997,35.061019 -82.21,42.871019 -0.016,0 32.182003,0 32.182003,0 4.161,0 7.382,-0.362 11.01,-3.704 3.629997,-3.343 38.857997,-38.998019 38.960997,-39.091019 z" id="path3014-4" style="fill:url(#linearGradient3693-0)"/>
    <path d="m 74.83853,72.416261 h -6.468 l 5.439,-9.284 1.029,9.284 z m 10.255003,11.454 -5.424003,-29.931 c 0,0 -6.16,0 -6.717,0 -0.872,0 -2.718,0.201 -4.239,2.723 -1.409,2.171 -14.21,22.304 -14.21,22.304 l 0.009,4.904 h 7.12 l 2.807,-4.741 h 11.117 l 0.553,4.741 h 8.984003 z" id="path3016-1" style="fill:#ffd200"/>
    <path d="m 46.83453,64.681261 c -0.497,2.152 -2.279,3.209 -5.421,3.209 h -3.972 l 1.459,-6.336 h 3.712 c 3.304,0 4.699,1.05 4.222,3.127 m -16.262,-8.638 -0.656,2.885 -5.734,24.936 h 9.686 l 2.599,-11.426 c 2.452,0 6.748,0.481 6.531,7.993 -0.016,0.667 -0.13,3.085 -0.164,3.438 h 10.364 c 0,-0.97 -0.014,-1.926 -0.021,-3.183 -0.013,-2.412 -0.125,-4.442 -0.608,-6.17 -0.44,-1.733 -1.255,-3.167 -2.362,-4.307 1.632,-0.588 5.28,-2.492 6.59,-7.349 0.707,-2.639 0.494,-8.914 -9.55,-8.949 h -17.236 l 0.561,2.132 z" id="path3018-1" style="fill:#ffd200"/>
    <path d="m 105.02653,72.436261 c -0.397,0.543 -0.836,0.981 -1.385,1.41 -1.363,1.076 -2.973,1.619 -4.858997,1.619 -1.85,0 -3.242,-0.611 -4.165,-1.83 -0.925,-1.235 -1.181,-2.783 -0.751,-4.664 0.446,-1.942 1.432,-3.545 2.949,-4.805 1.521,-1.262 3.229997,-1.899 5.124997,-1.899 2.621,0 4.214,1.23 4.81,3.709 h 9.861 c -0.03,-2.92 -0.968,-5.98 -2.491,-7.856 -2.286,-2.861 -5.629,-4.288 -10.034,-4.288 -4.467997,0 -8.560997,1.456 -12.284997,4.369 -3.72,2.914 -6.067,6.504 -7.049,10.77 -0.968,4.245 -0.293,7.807 2.048,10.669 2.347,2.86 5.733,4.291 10.167,4.291 4.378997,0 8.207997,-1.261 11.502997,-3.779 2.491,-1.898 4.668,-4.688 6.189,-7.716 h -9.633 z" id="path3020-3" style="fill:#ffd200"/>
    <path d="m 83.420533,5.5982591 c -6.500003,-6.918 -17.438003,-7.907 -25.012003,0.061 0,0 -53.9100018,53.9170019 -53.5080018,53.5770019 C 22.77253,43.695261 62.58453,5.8482591 84.082533,6.3152591 c -0.294,-0.289 -0.341,-0.392 -0.662,-0.717 z" id="path3027-8" style="fill:url(#linearGradient3695-7)"/>
  </g>
</svg>