<?xml version="1.0" standalone="no"?>
<!DOCTYPE svg PUBLIC "-//W3C//DTD SVG 1.1//EN" "http://www.w3.org/Graphics/SVG/1.1/DTD/svg11.dtd" >
<svg xmlns="http://www.w3.org/2000/svg">
<metadata>Generated by IcoMoon</metadata>
<defs>
<font id="b2c-icons" horiz-adv-x="512">
<font-face units-per-em="512" ascent="480" descent="-32" />
<missing-glyph horiz-adv-x="512" />
<glyph unicode="&#x20;" d="" horiz-adv-x="256" />
<glyph unicode="&#xe000;" d="M-0.324 99.164v-131.164h36.818l216.305 127.712h3.451l212.855-127.712h36.817v131.164l-220.907 138.067h-65.583l-219.757-138.067zM-0.324 341.933v-131.164h36.818l216.306 127.711h3.451l212.854-127.711h36.817v131.164l-220.907 138.067h-65.583l-219.757-138.067z" horiz-adv-x="506" />
<glyph unicode="&#xe001;" d="M547.2 9.777l-122.246 214.223v2.328l122.246 211.895v41.913h-156.011l-131.563-220.044v-73.349l131.563-218.877h156.011v41.912zM287.571 9.777l-122.247 214.223v2.328l122.247 211.895v41.913h-156.011l-131.56-220.043v-73.349l131.561-218.879h156.010v41.912z" horiz-adv-x="547" />
<glyph unicode="&#xe002;" d="M285.137 109.404c-5.329 0-9.661-4.312-9.661-9.651 0-5.329 4.331-9.661 9.661-9.661s9.66 4.332 9.66 9.661c0 5.34-4.331 9.651-9.66 9.651zM258.848 376.101l-206.245-181.095v-202.981h140.654l-0.15 193.76 135.544-0.021v-193.799l140.844 0.060 0.001 195.895-210.647 188.181zM255.804 458l-253.932-222.264c0 0-6.199-19.472 3.972-29.652 10.19-10.18 29.712-3.992 29.712-3.992l223.352 195.247 222.463-194.359c0 0 16.827-3.104 26.129 6.208 9.292 9.291 1.308 23.893 1.308 23.893l-253.004 224.919z" />
<glyph unicode="&#xe003;" d="M0 9.777l122.246 214.223v2.328l-122.246 211.895v41.913h156.011l131.562-220.044v-73.349l-131.563-218.877h-156.011v41.912zM259.629 9.777l122.247 214.223v2.328l-122.247 211.895v41.913h156.011l131.56-220.043v-73.349l-131.561-218.879h-156.010v41.912z" horiz-adv-x="547" />
<glyph unicode="&#xe004;" d="M-0.324 348.836v131.164h36.818l216.305-127.712h3.451l212.855 127.712h36.817v-131.164l-220.907-138.067h-65.583l-219.757 138.067zM-0.324 106.067v131.164h36.818l216.306-127.711h3.451l212.854 127.711h36.817v-131.164l-220.907-138.067h-65.583l-219.757 138.067z" horiz-adv-x="506" />
<glyph unicode="&#xe005;" d="M213.344 1.024c-69.6 14.24-124.592 68.64-139.664 137.888-31.552 14.176-53.52 45.824-53.52 82.608 0 37.728 23.184 70.112 56.080 83.68 2.72 96.96 82.256 174.8 179.872 174.8 97.632 0 177.168-77.888 179.872-174.88 32.8-13.632 55.856-45.952 55.856-83.6 0-49.952-40.592-90.464-90.576-90.464-0.544 0-1.12 0-1.664 0v176.848c-4.080 75.664-66.848 135.856-143.488 135.856-78.4 0-142.208-62.912-143.728-140.912v-73.856c0.032-9.056 0.048-15.44 0.048-15.808h-0.032l-0.032-79.072c15.44-48.928 56.336-86.592 107.12-97.392 7.936 11.712 21.344 19.408 36.512 19.408 24.304 0 44.048-19.744 44.048-44.032 0-24.336-19.744-44.096-44.048-44.096-20.496 0-37.776 14.032-42.656 33.024z" />
<glyph unicode="&#xe006;" d="M361.749 290.573c12.2-19.274 19.287-42.092 19.287-66.587 0-27.569-8.954-53.031-24.106-73.647l99.041-87.257c35.514 44.011 56.828 99.956 56.828 160.904 0 54.346-16.966 104.678-45.783 146.152l-105.269-79.565zM256.4 348.637c26.75 0 51.487-8.456 71.739-22.751l85.459 100.544c-43.393 33.77-97.926 53.957-157.197 53.957-53.581 0-103.296-16.469-144.421-44.574l77.875-106.462c19.26 12.2 42.065 19.286 66.546 19.286zM131.776 223.987c0 26.75 8.429 51.487 22.764 71.768l-99.269 87.109c-34.575-43.675-55.271-98.841-55.271-158.877 0-55.553 17.717-106.933 47.742-148.917l104.732 80.13c-13.073 19.703-20.697 43.351-20.697 68.787zM360.715 63.661l38.387-52.695c-40.789-27.38-89.874-43.352-142.702-43.352-58.063 0-111.577 19.299-154.554 51.834l84.962 101.123c19.865-13.396 43.85-21.233 69.593-21.233 23.798 0 46.064 6.685 64.99 18.28l39.324-53.957z" horiz-adv-x="513" />
<glyph unicode="&#xe007;" d="M295.053 479.767c-37.753-2.887-51.298-8.139-66.702-52.858-15.393-44.733 12.819-108.965 17.951-146.377 5.137-37.412 2.576-98.38-6.838-128.464-9.397-30.106 2.575-92.715 67.55-95.963 65.012-3.277 76.971 43.095 80.417 86.187 3.404 43.107 24.777 113.022 29.079 207.373 4.264 94.327-73.499 133.767-121.457 130.103zM390.199 258.849c-0.689-4.915-4.915-8.477-9.736-8.477-0.454 0-0.924 0.051-1.376 0.105-5.381 0.741-9.129 5.732-8.385 11.102 0 0.155 2.274 17.159-0.064 47.942-1.705 22.307-18.642 36.322-40.625 52.338-7.267 5.266-12.571 10.918-16.498 16.534-2.925-3.274-6.644-6.601-10.998-10.373-7.204-6.239-15.365-13.339-20.811-21.346-6.735-9.879-2.002-36.973 1.312-48.566 1.495-5.214-1.508-10.661-6.723-12.169-0.909-0.273-1.831-0.389-2.726-0.389-4.28 0-8.205 2.795-9.465 7.123-1.288 4.538-12.375 44.93 1.325 65.079 6.901 10.14 16.469 18.459 24.206 25.14 4.109 3.561 9.748 8.45 10.724 10.387 1.769 4.225 2.601 18.004 2.601 25.961 0 5.434 4.406 9.827 9.853 9.827 5.423 0 9.842-4.393 9.842-9.827 0-0.858-0.025-2.469-0.079-4.55 0.079-0.728 0.094-1.469-0.024-2.237-0.118-0.988-1.938-19.447 19.043-34.709 25.244-18.368 46.329-36.076 48.669-66.728 2.505-33.16 0.038-51.411-0.065-52.166zM225.077 82.077c-16.395 26.935-33.619 85.486-37.663 123.031-4.042 37.541 7.815 106.676-17.924 146.377-25.755 39.675-40.157 41.495-77.493 35.177-47.422-8.008-113.358-65.076-86.421-155.581 26.935-90.505 64.556-153.215 78.284-194.19 13.729-41.028 36.542-83.122 98.85-64.244 62.255 18.875 58.758 82.497 42.367 109.431zM174.987 204.094c-0.481-5.097-4.772-8.905-9.776-8.905-0.299 0-0.623 0.013-0.949 0.039-5.393 0.508-9.359 5.303-8.879 10.709 0.052 0.365 3.185 36.477-11.881 56.029-10.165 13.182-23.633 18.173-31.147 20.019-1.3-2.183-2.769-4.133-4.721-5.459-11.608-8.034-38.479-29.862-37.452-59.163 1.185-34.697 5.305-50.712 5.343-50.869 1.391-5.263-1.742-10.634-6.98-12.038-0.846-0.231-1.689-0.324-2.548-0.324-4.343 0-8.307 2.873-9.477 7.267-0.181 0.729-4.731 17.939-6.045 55.288-1.301 38.427 30.756 65.363 45.331 75.567 1.82 3.615 2.263 16.849 0.871 28.47-0.637 5.371 3.198 10.27 8.594 10.92 5.472 0.599 10.295-3.197 10.933-8.605 0.846-6.981 1.326-14.741 0.897-22.022 10.633-2.627 28.444-9.477 41.976-27.053 19.849-25.726 16.076-68.080 15.91-69.872z" horiz-adv-x="416" />
<glyph unicode="&#xe008;" d="M204.527 97.119c-20.841-20.863-54.699-20.863-75.519 0-20.841 20.863-20.841 54.678 0 75.541 20.863 20.841 54.678 20.841 75.519 0 20.862-20.864 20.862-54.679 0-75.541zM166.778 301.807c-92.167 0-166.888-74.744-166.888-166.907 0-92.2 74.721-166.9 166.888-166.9s166.934 74.7 166.934 166.9c0 92.163-74.765 166.907-166.934 166.907zM102.919 354.351c0 34.893 28.331 63.234 63.235 63.234 34.839 0 63.255-28.341 63.255-63.234v-44.635c22.813-7.35 43.793-18.492 62.404-32.911v77.523c0 69.303-56.379 125.671-125.66 125.671-69.323 0-125.659-56.369-125.659-125.671v-78.471c18.599 14.656 39.623 25.928 62.425 33.45v45.043z" horiz-adv-x="334" />
<glyph unicode="&#xe009;" d="M470.861 17.253c-9.124-9.255-24.015-9.359-33.271-0.235-9.241 9.125-9.344 24.028-0.205 33.271 9.111 9.241 24.015 9.329 33.271 0.203 9.24-9.109 9.327-23.996 0.205-33.238zM95.326 475.973l49.272-48.598c13.892-13.714 14.039-36.1 0.322-50.005l-38.491-39.020c-13.715-13.907-36.1-14.052-50.005-0.322l-51.576 50.901c-11.721-40.692-2.244-85.959 28.928-118.142 32.331-33.415 79.519-43.949 121.78-31.481l251.685-251.567c25.847-25.759 67.667-25.731 93.456 0.059 25.757 25.831 25.728 67.652-0.074 93.453l-257.012 256.51c6.513 37.112-4.006 76.454-31.918 105.279-30.965 31.977-75.529 42.964-116.367 32.93zM232.275 138.887l-122.779-120.707c-4.297-4.241-11.207-4.211-15.447 0.087-4.239 4.283-4.21 11.191 0.073 15.417l122.791 120.723-17.706 17.896-122.79-120.695c-4.297-4.255-11.207-4.226-15.447 0.059-4.24 4.283-4.209 11.206 0.087 15.447l122.778 120.707-20.918 21.124-132.928-130.757c-25.2-24.921-25.391-65.555-0.485-90.742 24.936-25.17 65.569-25.375 90.74-0.454l132.941 130.756-20.913 21.137zM472.577 361.705v0l47.423 78.038-33.238 33.561-78.493-46.619-19.039-49.93-82.029-80.576 33.224-33.577 82.029 80.576zM472.577 361.705v0l47.423 78.038-33.238 33.561-78.493-46.619-19.039-49.93-82.029-80.576 33.224-33.577 82.029 80.576z" horiz-adv-x="520" />
<glyph unicode="&#xe00a;" d="M336.637 280.121c-47.421 23.367-65.357 23.037-80.274 23.037-14.901 0-32.849 0.331-80.315-23.037-39.103-19.301-75.891-22.877-87.573-23.553 15.339 78.527 84.487 137.819 167.491 137.819 83.017 0 152.165-59.266 167.532-137.753-12.544 0.768-48.549 4.637-86.861 23.487zM296.701 57.921v66.711c0 0-0.104 20.981 13.581 37.261 20.267 24.191 45.051 23.024 45.051 23.024h66.869c-14.507-62.486-63.308-111.778-125.501-126.996zM257.065 177.805c-26.216 0-47.45 21.233-47.45 47.448 0 26.203 21.233 47.424 47.45 47.424 26.191 0 47.424-21.221 47.424-47.424 0-26.215-21.233-47.448-47.424-47.448zM218.094 57.271c-63.544 14.399-113.603 64.231-128.361 127.646h69.731c0 0 24.771 1.166 45.053-23.024 13.671-16.28 13.577-37.261 13.577-37.261l0.001-67.361zM255.967 480c-141.358 0-255.955-114.596-255.955-255.994 0-141.381 114.597-256.007 255.955-256.007 141.383 0.001 256.020 114.625 256.020 256.007 0 141.397-114.637 255.993-256.020 255.993z" />
<glyph unicode="&#xe00b;" d="M64.776 375.625c28.823 0 52.187 23.377 52.187 52.213-0.001 28.81-23.364 52.162-52.187 52.162-28.799 0-52.188-23.352-52.188-52.161 0-28.835 23.389-52.214 52.188-52.214zM205.201 336.524c-36.15 0-65.463-29.307-65.463-65.457l-0.209-30.142c26.962-2.025 48.224-24.487 48.224-51.978 0-27.675-21.553-50.236-48.751-52.014v0.031c-1.001-0.052-2.71-0.219-3.807-0.219-1.802 0-3.207 0.104-5.21 0.274v0.013c-26.051 2.678-46.833 24.905-46.833 51.926s20.781 49.222 46.833 51.899v59.592c0 36.137-28.971 65.457-65.12 65.457-36.124 0.001-65.133-29.319-65.133-65.456v-267.022c0-36.137 29.002-65.43 65.126-65.43 1.815 0 4.009 0.104 5.011 0.249v96.015c0 34.335 26.629 62.466 60.22 65.169 1.79 0.156 3.365 0.274 5.167 0.274 1.097 0 2.747-0.143 3.75-0.183v0.024c34.563-1.781 62.121-30.285 62.121-65.298v-96.017c1.001-0.025 1.595-0.13 2.43-0.13 36.15 0 65.432 29.306 65.432 65.456l1.685 237.507c-0.002 36.151-29.322 65.457-65.472 65.457zM205.201 346.241c28.81 0 52.187 23.378 52.187 52.187 0 28.824-23.377 52.188-52.187 52.188s-52.188-23.364-52.188-52.188c0.001-28.81 23.379-52.187 52.188-52.187z" horiz-adv-x="271" />
<glyph unicode="&#xe00c;" d="M487.912 190.523c1.104 8.389 16.561 20.798 17.060 29.244 0.896 15.358-19.861 45.413-34.12 51.184-22.639 9.163-137.711 4.875-137.711 4.875-11.239 19.663 20.043 68.203 28.644 89.166 12.635 30.713 10.503 71.467-5.473 92.405-19.51 25.58-55.319 27.285-56.060 15.833-5.334-83.013-21.229-106.043-42.505-122.459-12.779-9.857-23.952-18.487-29.851-33.515-36.263-92.355-63.14-113.735-78.499-113.735h-10.243v-209.91l107.497-19.997c0 0 133.449-12.631 175.468 0 13.22 3.963 36.038 23.821 41.429 36.563 3.084 7.313-1.189 24.623 2.45 31.683 5.37 10.463 28.051 23.567 28.031 37.776-0.021 10.136-11.829 27.675-10.971 37.776 0.853 10.124 21.956 23.993 21.935 34.12-0.044 10.63-18.481 28.444-17.083 38.992zM118.686-1.272c0-11.309-9.171-20.479-20.483-20.479h-61.438c-11.31 0-20.479 9.171-20.479 20.479l0.001 194.556c0 11.31 9.171 20.479 20.479 20.479h61.438c11.313 0 20.483-9.171 20.483-20.479v-194.556z" />
<glyph unicode="&#xe00d;" d="M80.947 146.618c0 0-7.099 0-14.406 0-7.304 0-53.199 26.486-53.199 91.951 0 65.472 72.203 92.892 72.203 92.892s5.001 148.539 160.133 148.539c131.651 0 154.202-110.549 154.202-110.549s98.444-19.82 98.444-120.896c0-101.068-86.838-103.63-86.838-103.63h-96.257c0 0 33.637 43.125 49.289 43.836 15.657 0.711 89.209-15.656 88.297 60.409-1.067 89.028-82.957 68.038-82.957 68.038s-20.281-10.312-34.281-22.604c-10.52-9.245-28.798-11.353-35.104-3.369-21.349 27.041 2.604 39.045 2.604 39.045l47.921 27.843c0 0-14.231 70.051-110.012 70.051-90.665 0-107.087-84.635-107.087-98.502 0-9.618 0.054-39.66 0.054-39.66s-66.345-2.339-66.889-49.302c-0.524-44.837 46.111-50.881 46.111-50.881l-32.231-43.213zM262.592 313.484l-148.528-172.717h93.265l-55.271-141.623 165.809 195.16h-100.175l44.901 119.179zM314.184 102.209c0 0 5.183-32.301-22.448-59.933-27.644-27.643-8.639-74.276 22.448-74.276 31.091 0 43.188 27.644 43.188 43.187 0 15.548-28.631 27.221-43.188 91.022z" />
<glyph unicode="&#xe00e;" d="M77.011 265.75l39.641 16.555 180.057-2.52 119.521 46.111c8.070 3.3 15.151 5.785 21.651 7.613 6.46 1.821 9.495 2.907 17.010 3.45 7.38 0.688 18.676 1.925 27.28 0.502 8.409-1.143 18.575-3.811 23.32-8.565 4.755-4.929 9.335-12.84 4.355-20.309-5.385-7.115-4.745-9.69-35.591-22.775-31.195-13.16-79.825-31.090-148.756-55.16v0l-65.021-95.767-61.44-23.091 38.665 88.267-92.246-28.065c-33.285 9.285-61.063 18.479-84.817 27.58-23.855 9.289-47.618 19.469-56.563 27.089-8.745 7.595-1.51 15.211 4.009 18.030 5.438 2.851 6.795 3.411 28.263-1.050 21.595-4.29 54.263-12.655 99.676-25.051v0l59.977 20.064c-39.655 9.001-79.306 18.036-118.991 27.091v0z" />
<glyph unicode="&#xe00f;" d="M379.615 146.824h-142.568v-21.986h142.568v21.986zM478.893 268.089h-264.175c-18.21 0-32.981-14.763-32.981-32.979v-154.245c0-18.209 14.772-32.981 32.981-32.981h264.175c18.223 0 32.981 14.773 32.981 32.981l0.001 154.245c0 18.217-14.76 32.978-32.983 32.978zM489.889 70.213h-286.166v98.255h286.167l-0.001-98.255zM489.717 213.125h-285.822c0 0 0.172 16.585 0.172 16.316 0 9.019 7.3 16.319 16.321 16.319h253.528c9.016 0 16.316-7.3 16.316-16.319 0-0.073-0.515-16.316-0.515-16.316zM200.694 289.861c26.865 0 163.408-0.086 163.408-0.086l-37.199 92.912c-6.656 16.954-25.798 25.302-42.752 18.652l-263.334-102.9c-16.954-6.645-25.308-25.786-18.652-42.737l62.856-154.187c6.644-16.947 25.787-25.303 42.74-18.647l52.075 20.075c0 0-0.014 32.396-0.028 67.039l-53.303-21.443-7.901 18.205 61.196 24.853c-0.011 26.288-0.019 50.214-0.019 58.178 0.001 20.506 14.055 40.087 40.913 40.087zM83.489 201.1l-21.986 44.66 54.618 21.987 22.33-44.663-54.963-21.984z" />
<glyph unicode="&#xe010;" d="M462.185 290.711h-412.373c-24.498 0-44.352-19.854-44.352-44.352v-122.195c0-24.493 19.854-44.348 44.352-44.348h412.373c24.498 0 44.353 19.853 44.353 44.348l0.001 122.194c-0.001 24.498-19.855 44.353-44.353 44.353zM115.14 133.604c-27.737 0-50.245 22.49-50.245 50.248 0 27.755 22.507 50.246 50.245 50.246 27.762 0 50.261-22.491 50.261-50.246 0-27.757-22.499-50.248-50.261-50.248zM311.105 156.029h-102.077c-5.86 0-10.616 0.721-10.616 6.586s4.756 4.156 10.616 4.156h102.077c5.868 0 10.616 1.709 10.616-4.156 0.001-5.863-4.747-6.586-10.616-6.586zM312.645 200.349h-103.721c-5.095 0-9.221 1.063-9.221 6.147 0 5.079 4.127 5.643 9.221 5.643h103.722c5.079 0 9.189-0.564 9.189-5.643 0-5.083-4.111-6.147-9.19-6.147zM404.623 132.193c-28.135 0-50.954 22.801-50.954 50.933 0 28.148 22.82 50.969 50.954 50.969 28.148 0 50.962-22.822 50.962-50.969-0.001-28.132-22.813-50.933-50.962-50.933zM374.667-9.355c0 0 9.891-22.645 32.559-22.645 22.644 0 35.372 22.645 35.372 22.645v65.238h-66.521l-1.411-65.238zM75.278-9.355c0 0 9.907-22.645 32.559-22.645 22.644 0 35.372 22.645 35.372 22.645v65.238l-66.522 0.001-1.409-65.238zM296.353 480h-78.685c-62.191 0-112.783-50.6-112.783-112.795v-53.618h48.173v53.618c0 35.631 28.979 64.618 64.609 64.618h78.685c35.63 0 64.625-28.988 64.625-64.618v-53.618h48.173v53.618c0.002 62.196-50.606 112.795-112.797 112.795z" />
<glyph unicode="&#xe011;" d="M142.756 124.436c-2.668 0-4.837-2.158-4.837-4.832 0-2.668 2.169-4.836 4.837-4.836 2.671 0 4.84 2.168 4.84 4.836 0 2.673-2.169 4.832-4.84 4.832zM129.595 257.962l-103.26-90.667v-101.627h70.421l-0.075 97.010 67.865-0.012v-97.027l70.513 0.029v98.077l-105.463 94.217zM217.734 219.256c1.050-0.385 1.669-0.584 1.669-0.584s-18.059 12.867-20.722 37.872c-0.585 5.471 8.709 5.647 19.762-11.983 4.507-7.19 24.58-2.144 10.644 17.829-13.931 19.981 3.077 43.719 3.363 39.365 0.285-4.347 4.387-26.104 21.901-21.916 17.508 4.183 4.861 33.873 12.665 39.353 7.805 5.477 13.697-26.113 7.061-56.764-6.625-30.647 14.313-12.981 17.424-18.673 8.98-16.4-45.389-30.561-45.389-30.561s-13.987-13.373 32.235-5.157c46.217 8.216 60.672 62.951 60.672 62.951s-13.832-20.782-27.707-15.181c-13.867 5.611 7.965 23.275 13.896 47.54 5.926 24.261-19.443 63.48-19.443 63.48s0.507-26.139-10.998-33.635c-11.502-7.506-22.586 18.238-18.834 37.701 3.744 19.468 20.863 44.537 20.752 44.572-7.863 2.293-34.727-14.107-48.063-29.219-13.336-15.109-6.036-49.828-22.001-51.372-15.959-1.544-4.827 41.823-9.535 37.707-33.929-29.781-23.13-45.996-20.063-62.025 3.068-16.029-0.745-23.515-8.964-28.021-16.015-8.769-19.148 30.031-19.148 30.031s-3.673-32.895 0.2-50.084l-41.039 36.481-127.135-111.279c0 0-3.104-9.748 1.989-14.846 5.103-5.096 14.875-1.998 14.875-1.998l111.824 97.753 111.38-97.308c0 0 8.425-1.555 13.082 3.107 4.651 4.652 0.655 11.963 0.655 11.963l-37.006 32.9zM504.633 86.045c4.313 40.949-54.529 51.399-62.455 58.742-9.43 9.43-25.334 36.998-41.225 36.998-10.348 0-61.076-0.267-90.438 0s-49.736-56.925-50.004-63.34c-0.268-6.416-1.161-38.791-1.161-38.791l25.629-0.605c0 0-0.241 26.273 27.473 26.273 27.717 0 29.561-26.299 29.561-26.299l89.783-1.213c0 0 2.527 27.915 28.053 27.915 27.563 0 27.563-27.726 27.563-27.726h24.51l0.080 8.333-7.369-0.286zM350.327 144.529l-66.183 0.639c0 0 3.926 29.425 30.576 29.637 26.651 0.209 35.801 0.215 35.801 0.215l-0.195-30.491zM359 145v30c0 0 23.516 0 32.684 0 15.775 0 25.24-9.369 30.063-16.385s10.445-13.615 10.445-13.615h-73.193zM289.653 77.436c0-12.769 10.351-23.119 23.119-23.119s23.119 10.351 23.119 23.119c0 12.769-10.351 23.119-23.119 23.119s-23.119-10.351-23.119-23.119zM436.653 77.436c0-12.769 10.351-23.119 23.119-23.119s23.119 10.351 23.119 23.119c0 12.769-10.351 23.119-23.119 23.119s-23.119-10.351-23.119-23.119z" />
<glyph unicode="&#xe012;" d="M451.716 380.285l-71.432 71.431c-15.556 15.556-46.284 28.284-68.284 28.284h-240c-22 0-40-18-40-40v-432c0-22 18-40 40-40h368c22 0 40 18 40 40v304c0 22-12.728 52.729-28.284 68.285zM429.089 357.657c1.565-1.565 3.125-3.487 4.64-5.657h-81.729v81.728c2.17-1.515 4.092-3.075 5.657-4.64l71.432-71.431zM448 8c0-4.336-3.664-8-8-8h-368c-4.336 0-8 3.664-8 8v432c0 4.336 3.664 8 8 8h240c2.416 0 5.127-0.305 8-0.852v-127.148h127.148c0.547-2.873 0.852-5.583 0.852-8v-304z" />
<glyph unicode="&#xe013;" d="M464 416h-416c-26.512 0-48-21.488-48-48v-288c0-26.496 21.488-48 48-48h416c26.512 0 48 21.504 48 48v288c0 26.512-21.488 48-48 48zM43.856 64.16l-11.696 11.712 131.984 131.968 11.696-11.712-131.984-131.968zM468.144 64.16l-131.984 131.968 11.696 11.712 131.984-131.968-11.696-11.712zM272 170.8v-10.8h-32v10.8l-207.952 192.8 20.352 20.352 203.6-188.768 203.6 188.768 20.352-20.352-207.952-192.8z" />
<glyph unicode="&#xe014;" d="M379.392 110.131c-63.104 22.989-83.277 42.394-83.277 83.942 0 24.935 19.277 16.793 27.725 62.464 3.507 18.944 20.531 0.307 23.808 43.546 0 17.229-9.293 21.529-9.293 21.529s4.736 25.523 6.579 45.133c2.253 24.473-14.131 87.654-101.734 87.654-87.578 0-104.013-63.181-101.709-87.654 1.843-19.61 6.579-45.133 6.579-45.133s-9.319-4.275-9.319-21.529c3.251-43.238 20.275-24.601 23.782-43.546 8.474-45.671 27.75-37.529 27.75-62.464 0-41.549-20.173-60.954-83.277-83.942-63.334-23.040-104.448-46.567-104.448-62.618 0-16.026 0-53.888 0-53.888h481.28c0 0 0 37.863 0 53.888s-41.139 39.552-104.448 62.618z" />
<glyph unicode="&#xe015;" d="M316.851 110.131c-63.769 22.989-84.147 42.394-84.147 83.942 0 24.935 19.482 16.793 28.032 62.464 3.558 18.944 20.762 0.307 24.013 43.546 0 17.229-9.37 21.529-9.37 21.529s4.787 25.523 6.63 45.133c2.304 24.473-14.285 87.654-102.81 87.654s-105.114-63.181-102.809-87.654c1.869-19.635 6.656-45.133 6.656-45.133s-9.395-4.275-9.395-21.529c3.302-43.238 20.505-24.601 24.013-43.546 8.576-45.671 28.058-37.529 28.058-62.464 0-41.549-20.403-60.954-84.173-83.942-7.68-2.739-25.984-7.040-41.549-13.773v-102.759h409.6c0 0 0 37.863 0 53.888s-28.749 39.577-92.749 62.643zM435.2 249.6v76.8h-51.2v-76.8h-76.8v-51.2h76.8v-76.8h51.2v76.8h76.8v51.2h-76.8z" />
<glyph unicode="&#xe016;" d="M496 288h-176v176c0 8.836-7.164 16-16 16h-96c-8.836 0-16-7.164-16-16v-176h-176c-8.836 0-16-7.164-16-16v-96c0-8.836 7.164-16 16-16h176v-176c0-8.836 7.164-16 16-16h96c8.836 0 16 7.164 16 16v176h176c8.836 0 16 7.164 16 16v96c0 8.836-7.164 16-16 16z" />
<glyph unicode="&#xe017;" d="M0 272v-96c0-8.836 7.164-16 16-16h480c8.836 0 16 7.164 16 16v96c0 8.836-7.164 16-16 16h-480c-8.836 0-16-7.164-16-16z" />
<glyph unicode="&#xe018;" d="M426.672 480h-341.33c-46.935 0-85.341-38.407-85.341-85.344v-341.313c0-46.969 38.407-85.343 85.341-85.343l341.329 0.001c46.938 0 85.328 38.373 85.328 85.344l0.001 341.311c0 46.937-38.391 85.344-85.328 85.344zM435.296 224h-83.296v-224h-96v224h-46.263v73.281l46.263 0.001v47.593c0 64.671 27.896 103.125 103.935 103.125h87.623v-79.285h-71.565c-21.241 0.035-23.876-11.076-23.876-31.756l-0.117-39.677h96l-12.704-73.283z" />
<glyph unicode="&#xe019;" d="M512 382.791c-18.837-8.353-39.082-14.001-60.329-16.54 21.687 13 38.343 33.585 46.187 58.115-20.298-12.039-42.777-20.78-66.705-25.489-19.16 20.415-46.461 33.171-76.673 33.171-58.011 0-105.044-47.029-105.044-105.039 0-8.233 0.929-16.25 2.72-23.939-87.3 4.382-164.701 46.2-216.509 109.753-9.043-15.514-14.223-33.558-14.223-52.809 0-36.444 18.544-68.596 46.73-87.433-17.219 0.546-33.416 5.271-47.577 13.139-0.011-0.438-0.011-0.878-0.011-1.321 0-50.894 36.209-93.348 84.261-103-8.813-2.4-18.094-3.685-27.674-3.685-6.769 0-13.349 0.66-19.764 1.885 13.368-41.729 52.16-72.103 98.126-72.948-35.951-28.175-81.243-44.967-130.458-44.967-8.479 0-16.84 0.497-25.058 1.469 46.486-29.805 101.701-47.197 161.021-47.197 193.211 0 298.868 160.063 298.868 298.872 0 4.555-0.103 9.084-0.305 13.59 20.528 14.809 38.336 33.309 52.418 54.373z" />
<glyph unicode="&#xe01a;" d="M408.791 326.658c-15.731 0-26.291-12.81-26.291-44.271s10.562-44.269 26.291-44.269c15.729 0 26.291 12.808 26.291 44.269s-10.563 44.271-26.291 44.271zM143.185 313.401c0 9.661-4.945 15.013-15.731 15.013l-9.205-0.001v-30.25h8.98c10.786 0 15.955 5.35 15.955 15.238zM127.904 269.289h-9.653v-34.375h9.653c11.686 0 17.752 5.839 17.752 17.3 0.001 11.686-6.291 17.075-17.752 17.075zM649 479.664h-594c-30.375 0-55-23.249-55-53.625v-288.75c0-30.377 24.625-56.375 55-56.375h97.625v-112.75l114.738 112.75 381.636-0.001c30.377 0 55 25.998 55 56.375v288.75c0 30.377-24.623 53.625-55 53.625zM131.051 203.289h-66.427v156.75h65.751c41.571 0 62.353-12.422 62.353-40.286 0-19.327-11.23-27.702-29.104-32.421v-0.899c22-3.596 34.723-15.616 34.723-37.413-0.001-29.889-25.052-45.731-67.298-45.731zM324.501 203.289h-111.375v156.75h53.625v-121h57.75l0.001-35.75zM408.791 201.937c-45.841 0-80.221 28.539-80.221 80.675s35.728 81.575 80.221 81.575c44.716 0 80.447-29.438 80.447-81.575s-34.606-80.675-80.447-80.675zM642.125 214.073c-16.5-7.866-38.582-12.136-61.728-12.136-56.853 0-80.975 29.214-80.975 79.552 0 53.484 32.871 82.699 87.476 82.699 21.347 0 35.975-3.819 49.726-10.562v-37.586h-21.779c-5.842 4.125-14.606 9.466-27.415 9.466-22.021 0-33.482-11.222-33.482-44.256 0-33.934 8.339-44.938 26.768-44.938 6.067 0 10.532 0.905 13.283 1.805v21.546h-15.125v28.875h63.25l0.001-74.467z" horiz-adv-x="704" />
<glyph unicode="&#xe01b;" d="M81.601-32c41.617 0 75.618 31.933 75.618 71.462 0 40.933-34.003 72.831-75.618 72.831-42.322 0-75.603-31.897-75.603-72.831-0.002-39.529 33.281-71.462 75.603-71.462zM31.665 156.854h100.587l31.197 233.075-0.001 90.184h-163.698v-90.184l31.915-233.075z" horiz-adv-x="163" />
<glyph unicode="&#xe01c;" d="M173.321 290.546c-33.964 9.382-52.763 14.651-52.763 34.037 0 17.583 16.381 28.168 49.263 28.168 29.925 0 52.763-12.941 66.836-24.656h57.49v82.699c-27.519 15.251-58.645 25.209-96.208 28.745l0.001 40.46h-80.943v-42.805c-71.49-12.315-117.253-53.967-117.253-126.107 0-85.634 50.406-110.843 122.582-130.183 45.091-11.715 64.477-14.108 64.477-37.524 0-18.786-17.597-28.747-51.596-28.747-34.025 0-58.092 13.471-73.293 29.274l-58.057 0.001v-86.188c26.34-16.981 62.181-28.144 108.439-31.089v-58.632h81.004v61.579c79.139 13.483 121.355 60.401 121.355 129.005-0.001 76.853-33.447 104.442-141.333 131.961z" horiz-adv-x="315" />
<glyph unicode="&#xe01d;" d="M429.203 221.951l-171.458-190.803 58.822 133.022h-61.371l63.922 159.087h113.884l-76.709-101.305h72.912zM649.096 421.176h-43.447l-0.001 46.999c0 6.384-5.194 11.579-11.541 11.579h-66.602c-6.385 0-11.581-5.195-11.581-11.579v-46.997h-335.476v46.997c0 6.384-5.233 11.579-11.636 11.579h-66.546c-6.422 0-11.655-5.195-11.655-11.579v-46.997h-44.277c-25.501-0.002-46.335-20.778-46.335-46.392v-360.146c0-25.615 20.834-46.391 46.335-46.391h602.759c25.632 0 46.391 20.776 46.391 46.391l0.003 360.146c0 25.614-20.76 46.391-46.392 46.391z" horiz-adv-x="695" />
<glyph unicode="&#xe01e;" d="M467.493 65.733l-106.813 90.845c-11.042 9.938-22.851 14.5-32.39 14.060 25.214 29.535 40.445 67.851 40.445 109.729 0 93.393-75.709 169.101-169.101 169.101s-169.101-75.709-169.101-169.101 75.709-169.101 169.101-169.101c41.878 0 80.194 15.231 109.73 40.445-0.441-9.539 4.122-21.348 14.060-32.39l90.846-106.813c15.555-17.283 40.964-18.74 56.464-3.24s14.043 40.91-3.238 56.465zM199.633 167.633c-62.261 0-112.734 50.474-112.734 112.734s50.474 112.735 112.734 112.735 112.734-50.474 112.734-112.735-50.473-112.734-112.734-112.734z" />
<glyph unicode="&#xe01f;" d="M491.536 371.616l-147.152-148.048 147.152-147.168c6.16-6.144 6.16-16.112 0-22.272l-66.816-66.8c-6.128-6.16-16.096-6.16-22.256 0l-146.912 146.912-146.032-146.912c-6.144-6.16-16.112-6.16-22.272 0l-66.8 66.8c-6.144 6.16-6.144 16.128 0 22.272l146.032 146.912-146.016 146.016c-6.144 6.144-6.144 16.112 0 22.272l66.8 66.8c6.144 6.16 16.112 6.16 22.272 0l145.76-145.76 147.184 148.048c6.16 6.16 16.128 6.16 22.256 0l66.816-66.8c6.128-6.16 6.128-16.128-0.016-22.272z" />
<glyph unicode="&#xe020;" d="M407.056 330.72l-88.912 74.464 16.752 20.016c-29.056 12.624-61.568 18.464-95.344 15.664-22.32-1.872-43.504-7.376-62.976-15.872l16.592-19.808-88.672-74.24-40.544 50.88c43.056 59.472 113.040 98.176 192.032 98.176s149.008-38.72 192.064-98.24l-35.072-43.968-5.92-7.072zM124.288 132.656c10.912 0 19.76 8.848 19.76 19.744 0 61.744 50.224 111.968 111.968 111.968 61.712 0 111.968-50.224 111.968-111.968 0-61.728-50.256-111.968-111.968-111.968h-0.032v32.944l-79.024-52.688 79.024-52.688v32.928h0.032c83.52 0 151.488 67.952 151.488 151.488s-67.968 151.504-151.488 151.504c-83.552 0-151.488-67.968-151.488-151.504 0-10.912 8.848-19.76 19.76-19.76zM218.096 152.208c0 0 0 0 0 0 0-20.934 16.97-37.904 37.904-37.904s37.904 16.97 37.904 37.904c0 0 0 0 0 0 0 20.934-16.97 37.904-37.904 37.904s-37.904-16.97-37.904-37.904z" />
<glyph unicode="&#xe021;" d="M512 224c0-141.376-114.624-256-256-256s-256 114.624-256 256 114.624 256 256 256c141.376 0 256-114.624 256-256zM281.984 186.208c2.688 5.632 9.6 13.056 20.704 22.304 21.504 17.888 35.52 32 42.080 42.368s9.856 21.376 9.856 32.992c0 20.992-8.928 39.392-26.816 55.232s-41.92 23.744-72.192 23.744c-28.736 0-51.968-7.808-69.664-23.424s-27.2-34.656-28.576-57.024l48.384-5.984c3.36 15.616 9.568 27.264 18.56 34.88s20.192 11.424 33.568 11.424c13.888 0 24.896-3.648 33.088-10.976s12.288-16.096 12.288-26.336c0-7.36-2.304-14.112-6.944-20.256-3.008-3.872-12.192-12.064-27.584-24.544s-25.6-23.776-30.72-33.76-7.68-22.752-7.68-38.24c0-1.504 0.064-5.696 0.192-12.576h47.808c-0.288 14.496 0.96 24.576 3.648 30.176zM283.2 85.152v52.672h-52.704v-52.672h52.704z" />
<glyph unicode="&#xe022;" d="M512 343.584c0-8.8-3.072-16.32-9.248-22.464l-284.064-284.064c-6.176-6.176-13.664-9.248-22.464-9.248s-16.32 3.072-22.464 9.248l-164.512 164.48c-6.176 6.176-9.248 13.632-9.248 22.464s3.072 16.32 9.248 22.464l44.896 44.928c6.176 6.144 13.664 9.248 22.496 9.248 8.8 0 16.288-3.104 22.464-9.248l97.12-97.472 216.672 217.024c6.144 6.176 13.664 9.248 22.464 9.248s16.288-3.072 22.464-9.248l44.896-44.896c6.208-6.176 9.28-13.664 9.28-22.464z" />
<glyph unicode="&#xe023;" d="M477.696 352.512c22.88-39.232 34.304-82.080 34.304-128.512s-11.424-89.28-34.304-128.512c-22.912-39.232-53.984-70.272-93.184-93.152-39.232-22.912-82.080-34.336-128.512-34.336s-89.28 11.424-128.512 34.336c-39.232 22.88-70.272 53.952-93.184 93.152s-34.304 82.080-34.304 128.512 11.424 89.28 34.336 128.512 53.952 70.272 93.184 93.152c39.2 22.88 82.048 34.336 128.48 34.336s89.28-11.456 128.512-34.336c39.2-22.88 70.272-53.952 93.184-93.152zM383.008 148.672c0 5.76-2.112 10.752-6.336 15.008l-60.32 60.32 60.32 60.352c4.224 4.192 6.336 9.216 6.336 14.976 0 6.016-2.112 11.104-6.336 15.328l-29.984 30.016c-4.256 4.224-9.344 6.336-15.328 6.336-5.792 0-10.784-2.112-15.008-6.336l-60.352-60.32-60.32 60.32c-4.256 4.224-9.248 6.336-15.008 6.336-5.984 0-11.104-2.112-15.328-6.336l-30.016-30.016c-4.224-4.224-6.336-9.312-6.336-15.328 0-5.76 2.112-10.784 6.336-14.976l60.352-60.352-60.352-60.32c-4.224-4.256-6.336-9.248-6.336-15.008 0-6.016 2.112-11.136 6.336-15.328l30.016-30.016c4.192-4.224 9.344-6.336 15.328-6.336 5.792 0 10.784 2.112 15.008 6.336l60.32 60.352 60.352-60.352c4.224-4.224 9.216-6.336 15.008-6.336 6.016 0 11.104 2.112 15.328 6.336l29.984 30.016c4.192 4.224 6.336 9.344 6.336 15.328z" />
<glyph unicode="&#xe024;" d="M512 32c0-35.328-28.672-64-64-64h-384c-35.328 0-64 28.672-64 64v384c0 35.328 28.672 64 64 64h384c35.328 0 64-28.672 64-64v-384zM287.872 95.872v95.264h96.256v65.728h-96.256v95.264h-64v-95.264h-96v-65.76h96v-95.264h64z" />
<glyph unicode="&#xe025;" d="M393.856 381.527v-69.821c-12.365 2.212-25.636 3.978-39.377 5.54v64.281h-39.383c-10.88 0-19.691 8.811-19.691 19.691l-0.001 39.383h-118.149c-10.844 0-19.691-8.827-19.691-19.691v-103.665c-13.768-1.541-27.034-3.328-39.419-5.519v109.184c0 32.63 26.46 59.070 59.11 59.070h118.144c32.615-0.001 98.457-65.818 98.457-98.453zM354.473 86.165v-59.075c0-10.865-8.847-19.691-19.691-19.691l-157.527-0.001c-10.844 0-19.691 8.827-19.691 19.691v59.075h-39.419v-59.075c0-32.63 26.46-59.070 59.11-59.070h157.532c32.61 0 59.070 26.44 59.070 59.070v59.075h-39.383zM255.979 302.767c-157.526 0-255.979-19.697-255.979-98.457v-118.144c0-43.499 35.267-59.075 78.766-59.075h19.691v59.075c0 10.885 8.806 19.691 19.691 19.691h275.712c10.885 0 19.691-8.807 19.691-19.691v-59.075h19.691c43.499 0 78.766 15.575 78.766 59.075l0.001 118.144c-0.010 78.761-98.504 98.457-256.031 98.457zM452.889 204.309c0-10.885-8.811-19.691-19.691-19.691-10.885 0-19.697 8.807-19.697 19.691s8.811 19.691 19.697 19.691c10.88 0 19.691-8.806 19.691-19.691z" />
<glyph unicode="&#xe600;" d="M435.733 226.667c-6.4 0-12.8-1.066-18.666-2.667l-21.334 30.4c12.8 4.267 27.733 36.8 45.867 36.8 11.2 93.867-61.866 116.8-61.866 116.8-6.933 4.266-16.534 2.133-20.8-4.8l-15.466-24c0 0-4.8-6.4 1.6-9.6 3.2-1.6 5.334-6.4 3.2-13.867-0.534-2.133-1.6-3.733-2.666-4.8-1.6 3.2-4.8 5.334-8.534 5.866l-8 1.067c-6.4 1.067-12.267-3.2-13.334-9.6v0.534c-0.534-2.133 0-5.333 0.534-5.333h-24c0 0-15.466 0.534-27.2-9.067-12.8-11.2-37.334-4.8-75.2 10.667-68.8 27.733-82.666 19.733-82.666 19.733-8-1.6-21.334-19.733-3.2-29.334 0 0-27.2 2.134-41.6 2.667s-13.334-7.466-13.334-7.466l-1.066-20.267c0 0 0-8.534 10.133-9.066 18.133-1.066 49.6-36.8 75.2-58.666l-19.733-28.8c-11.733 8-25.6 12.8-41.066 12.8-39.467 0-72-32-72-72s32-72 72-72 72 32 72 72c0 8-1.066 15.466-3.733 22.4l24.534 23.466c22.4-37.866 25.066-42.666 25.066-42.666 4.8-8.534 16.534-14.933 26.666-14.933h64c9.6 0 21.334 6.933 26.666 14.933l36.8 62.4c0 0 2.134 2.666 5.866 6.934l28.267-29.333c-9.067-12.267-14.933-27.2-14.933-43.733 0-39.466 32-72 72-72 39.466 0 72 32 72 72 0 40.534-32.534 72.534-72 72.534zM73.067 123.733c-17.067 0-31.466 13.866-31.466 31.466 0 17.067 13.867 31.466 31.466 31.466 3.734 0 6.933-0.534 10.133-1.6l-13.334-12.8c-8.534-1.067-14.934-8-14.934-17.067 0-9.6 7.467-17.067 17.066-17.067 6.933 0 12.8 4.267 15.466 10.134l16.534 9.067c0-0.534 0-1.6 0-2.134 0.534-17.6-13.867-31.466-30.933-31.466zM361.6 338.667c0 0-6.933 0.534-4.8 5.866 1.6 4.267 4.267 11.2 4.267 18.134 0 4.266-1.067 8-4.267 11.733-1.6 1.6-1.6 3.2-1.6 4.8 0 2.666 1.6 4.8 1.6 4.8l10.666 16.534c0 0 3.2 4.8 13.866-1.067 0 0 34.134-13.333 48-51.2 2.666-8-4.8-8.534-4.8-8.534h-62.933zM435.733 123.733c-17.067 0-31.466 13.866-31.466 31.466 0 4.267 1.067 8.534 2.666 12.8l12.8-13.334c0.534-9.067 8-16.534 17.067-16.534 9.6 0 17.067 7.466 17.067 17.067 0 5.866-2.666 10.666-6.933 13.866l-9.6 17.067c16.534-1.067 29.334-14.4 29.334-30.933 0.534-17.6-13.334-31.466-30.933-31.466z" />
<glyph unicode="&#xe601;" d="M389.453 290.841c-7.040 0-13.978-0.615-20.711-1.741-16.793 54.912-68.813 94.925-130.458 94.925-75.213 0-136.167-59.597-136.167-133.12 0-6.553 0.512-13.005 1.459-19.328-3.609 0.41-7.245 0.691-10.983 0.691-51.123 0-92.595-40.551-92.595-90.522 0-49.997 41.472-90.522 92.595-90.522h127.565v97.28h-53.76l89.6 117.76 89.6-117.76h-53.76v-97.28h97.587c67.712 0 122.547 53.658 122.547 119.808 0.026 66.176-54.835 119.808-122.522 119.808z" />
<glyph unicode="&#xe602;" d="M17.067 177.067l19.733-107.733c2.666-0.534 5.867-1.067 8.534-1.067 15.466 0 28.8 8.534 36.8 21.334 8-12.8 21.334-21.866 37.334-21.866 14.4 0 27.2 7.466 35.2 18.666v1.067c8-12.267 21.333-19.733 36.267-19.733 15.466 0 29.333 8.534 36.8 21.866v-0.534c8-12.267 21.334-20.267 36.267-20.267 16 0 29.866 9.067 37.334 22.4v0c8-13.334 21.334-21.866 37.334-21.866 15.466 0 28.8 8.534 36.8 21.334 8-12.8 21.334-21.866 37.334-21.866 14.4 0 27.2 7.466 35.2 18.666l0.534 0.534 29.866 96.534-461.334-7.466zM506.666 280.534l-129.066-3.2-48 128-164.267-3.2v-25.067l39.466 1.067 32-104.534-232-5.333c0 0-4.8 0.534-4.266-4.8l13.867-75.733v4.267l467.2 6.933 23.466 76.8c1.067 0 4.8 5.334 1.6 4.8zM281.067 275.2l-33.066 103.466 73.066 2.133 32-103.466-72-2.133z" />
<glyph unicode="&#xe603;" d="M507.733 294.933c0 15.466-12.8 27.734-27.733 27.734h-33.6l-24 62.933c-5.866 15.466-24 32-40 36.8 0 0-41.6 11.733-128 11.733s-128-11.733-128-11.733c-16-4.8-34.133-21.334-40-36.8l-24-62.933h-33.6c-15.466 0-27.733-12.8-27.733-27.734 0-15.466 12.8-27.733 27.733-27.733h11.733l-8.534-22.4c-5.866-15.466-10.666-42.133-10.666-58.666v-131.733c0-19.733 16-35.733 35.734-35.733s35.733 16 35.733 35.733v20.267h324.267v-20.267c0-19.733 16-35.733 35.733-35.733s35.733 16 35.733 35.733v131.733c0 16.534-4.8 43.2-10.666 58.666l-8.534 22.4h10.666c15.466 0 27.733 12.8 27.733 27.733zM90.666 286.933l28.266 77.334c2.133 5.334 8 9.6 13.867 9.6h243.2c5.334 0 11.733-4.267 13.866-9.6l28.267-77.334c2.134-5.333-1.067-9.6-6.4-9.6h-314.666c-5.334 0-8.534 4.267-6.4 9.6zM89.6 160.534c-15.466 0-27.733 12.267-27.733 27.733s12.267 27.733 27.733 27.733c15.466 0 27.733-12.267 27.733-27.733 0-14.933-12.267-27.733-27.733-27.733zM419.2 160.534c-15.466 0-27.733 12.267-27.733 27.733s12.267 27.733 27.733 27.733c15.466 0 27.733-12.267 27.733-27.733s-12.267-27.733-27.733-27.733z" />
<glyph unicode="&#xe604;" d="M1.067 318.933v-211.733h153.6c0 43.733 37.867 76.267 82.133 76.267 43.734 0 86.934-32.534 86.934-76.267h118.4v209.067c0 45.866-0.534 75.2-61.866 75.2h-328c-36.8 0-51.2 1.066-51.2-72.534zM231.466 337.067h128c25.6 0 25.6 0 25.6-25.6v-76.267h-170.667v76.267c0 18.134-3.733 25.6 17.066 25.6zM57.6 311.466c0 25.6-0.533 25.6 30.4 25.6h66.666c18.666 0 17.066-6.934 17.066-25.6v-76.267h-114.133v76.267zM169.6 98.666c0 37.867 30.934 69.334 69.333 69.334 37.866 0 69.334-30.933 69.334-69.334 0-37.867-30.933-69.334-69.334-69.334-38.4 0.534-69.334 31.466-69.334 69.334zM200 98.666c0-21.334 17.066-38.4 38.4-38.4s38.4 17.067 38.4 38.4c0 21.334-17.067 38.4-38.4 38.4s-38.4-17.067-38.4-38.4zM513.067 137.067c0 13.866-11.2 25.067-25.067 25.067h-70.4c-13.866 0-25.067-11.2-25.067-25.067v0c0-13.866 11.2-30.4 25.067-30.4h70.4c13.866 0.534 25.067 16.534 25.067 30.4v0z" />
<glyph unicode="&#xe605;" d="M83.734 376c0-0.534 0-1.067 0-1.067s0 0.534 0 1.067zM429.866 133.334c0.534 0 1.067 0 1.6 0 35.2 0 64.534-28.267 65.6-64 1.067-36.267-27.733-66.133-64-67.2-0.534 0-1.067 0-1.6 0-35.2 0-64.534 28.267-65.6 64-0.534 36.267 28.267 66.134 64 67.2zM366.4 66.134c-1.067 36.267 27.733 66.134 64 67.2 0.534 0 1.067 0 1.6 0 35.2 0 64.534-28.267 65.6-64 1.067-36.267-27.733-66.133-64-67.2-0.534 0-1.067 0-1.6 0-35.733 0-64.534 28.267-65.6 64zM76.266 134.4c0.534 0 1.067 0 1.6 0 35.2 0 64.533-28.267 65.6-64 1.066-36.267-27.733-66.134-64-67.2-0.534 0-1.067 0-1.6 0-35.2 0-64.534 28.267-65.6 64-0.534 35.733 27.733 66.133 64 67.2zM160 70.933c-1.066 44.267-37.867 80-82.133 80v0c-0.534 0-1.6 0-2.133 0-31.466-1.067-58.666-19.733-71.466-46.4-3.733 2.134-3.733 9.067-3.2 18.134 0.534 11.2 20.267 48 26.666 57.6 6.933 10.134 32 34.666 37.334 38.4s-50.133 209.067-47.467 213.333c2.134 3.734 33.066 11.734 33.066 11.734s12.267 4.266 20.8-8.534c8.534-12.8 23.466-35.734 26.133-42.667s11.733-29.866 11.733-29.866 29.867 4.8 48 5.334c18.133 0.534 62.934 3.2 59.2-4.267s-5.333-6.933-11.2-7.466c-5.333-0.534-90.133-21.334-90.133-21.334s-9.6-19.733-5.867-24.534c3.734-4.8 11.733-14.934 17.067-18.666 5.334-4.267 8-5.866 22.4-3.733s59.2 8 73.067 4.267c13.867-4.267 26.133-6.4 27.2-21.866 1.066-14.934 2.667-21.334-4.8-26.667s-68.8-16.534-68.8-16.534 16-6.4 27.733-10.666c11.2-3.733 22.934-3.733 26.133-25.067 3.2-20.8 5.867-31.466 5.867-31.466l92.267-2.666c0 0 10.666 30.4 27.733 43.2s32 16.534 32 16.534l2.666 11.733-21.866 143.466c0 0-31.466-4.8-38.933-2.666s-9.067 6.4-11.733 9.6c-2.666 3.2-12.267 13.867-3.733 18.667s62.4 22.933 69.334 25.066c6.933 2.666 16.534-8.534 19.2-12.8s3.733-16.534 4.267-22.4c0-5.334 0-22.933 0-21.866 0.534 1.066 4.8 2.666 19.733 3.2 23.466 0.534 44.267 0 50.666-2.666 6.933-2.667 26.134-18.667 26.134-18.667l-10.666-73.6c0 0 0-11.2-5.866-11.2s-32 0-32 0-13.866-0.534-21.866 4.8c-8 5.334-8.534 8-8.534 8l-5.334-0.534 3.733-52.8c0 0 17.067-8 28.8-16.534s18.134-13.866 24.534-19.733c6.4-5.866 28.267-32 28.267-45.334 0-13.866-4.8-22.933-5.334-25.067-14.933 21.334-39.466 35.2-67.2 35.2 0 0-1.6 0-2.134 0-21.866-0.534-42.134-9.6-57.067-25.6-13.866-14.4-21.866-33.6-22.4-53.334l-5.334 0.534-161.6-4.267c0 0-16-2.666-23.466 2.666 0.534-0.534 0.534-0.534 0.534 0z" />
<glyph unicode="&#xe606;" d="M352 160c-32-32-32-64-64-64s-64 32-96 64-64 64-64 96 32 32 64 64-64 128-96 128-96-96-96-96c0-64 65.75-193.75 128-256s192-128 256-128c0 0 96 64 96 96s-96 128-128 96z" />
<glyph unicode="&#xe607;" d="M240 480v0c132.548 0 240-86.957 240-194.224s-107.452-194.224-240-194.224c-12.729 0-25.223 0.81-37.417 2.355-51.553-51.347-111.086-60.554-170.583-61.907v12.567c32.126 15.677 58 44.233 58 76.867 0 4.553-0.356 9.024-1.015 13.397-54.279 35.607-88.985 89.994-88.985 150.945 0 107.267 107.452 194.224 240 194.224zM498 44.657c0-27.971 18.157-52.449 46-65.886v-10.771c-51.563 1.159-98.893 9.051-143.571 53.063-10.57-1.325-21.397-2.020-32.429-2.020-47.735 0-91.704 12.879-126.807 34.52 72.337 0.253 140.63 23.427 192.417 65.336 26.104 21.126 46.697 45.913 61.207 73.674 15.383 29.433 23.183 60.791 23.183 93.203 0 5.224-0.225 10.418-0.629 15.584 36.285-29.967 58.629-70.811 58.629-115.838 0-52.244-30.079-98.861-77.12-129.382-0.571-3.748-0.88-7.58-0.88-11.483z" horiz-adv-x="576" />
<glyph unicode="&#xe947;" d="M256 480c-88.366 0-160-71.634-160-160 0-160 160-352 160-352s160 192 160 352c0 88.366-71.635 160-160 160zM256 224c-53.020 0-96 42.98-96 96s42.98 96 96 96 96-42.98 96-96-42.98-96-96-96z" />
</font>
</defs>
</svg>
